<svg xmlns="http://www.w3.org/2000/svg" viewBox="0 0 192 192" role="img" aria-labelledby="title desc">
  <title id="title">Project Saja Icon</title>
  <desc id="desc">Shield emblem with neon cyan and violet gradient</desc>
  <defs>
    <linearGradient id="saja-gradient" x1="0%" y1="0%" x2="100%" y2="100%">
      <stop offset="0%" stop-color="#30e3ff" />
      <stop offset="100%" stop-color="#9d4edd" />
    </linearGradient>
    <filter id="glow" x="-20%" y="-20%" width="140%" height="140%">
      <feDropShadow dx="0" dy="0" stdDeviation="6" flood-color="#30e3ff" flood-opacity="0.6" />
    </filter>
  </defs>
  <rect width="192" height="192" rx="28" fill="#05060f" />
  <path d="M96 26l60 22v54c0 35-26.1 67.9-60 76-33.9-8.1-60-41-60-76V48l60-22z" fill="url(#saja-gradient)" filter="url(#glow)" />
  <path d="M96 62c-18 0-32 14-32 32 0 17.6 11.9 32.5 28 36.8V150l4 10 4-10v-19.2c16.1-4.3 28-19.2 28-36.8 0-18-14-32-32-32zm0 48c-8.8 0-16-7.2-16-16s7.2-16 16-16 16 7.2 16 16-7.2 16-16 16z" fill="#05060f" opacity="0.9" />
</svg>
