<svg width="64" height="72" viewBox="0 0 64 72" fill="none" xmlns="http://www.w3.org/2000/svg">
  <defs>
    <linearGradient id="shieldGradient" x1="10" y1="6" x2="54" y2="60" gradientUnits="userSpaceOnUse">
      <stop offset="0" stop-color="#00D4FF" />
      <stop offset="1" stop-color="#7C5CFF" />
    </linearGradient>
    <linearGradient id="sGradient" x1="20" y1="18" x2="44" y2="54" gradientUnits="userSpaceOnUse">
      <stop offset="0" stop-color="#FFFFFF" stop-opacity="0.92" />
      <stop offset="1" stop-color="#C7D3FF" stop-opacity="0.75" />
    </linearGradient>
    <filter id="shadow" x="-20%" y="-10%" width="140%" height="140%">
      <feDropShadow dx="0" dy="8" stdDeviation="6" flood-color="#00D4FF" flood-opacity="0.25" />
    </filter>
  </defs>
  <path
    d="M32 4L10.5 12C10.5 34.5 17.7 51.6 32 64C46.3 51.6 53.5 34.5 53.5 12L32 4Z"
    fill="url(#shieldGradient)"
    stroke="#1A1F3C"
    stroke-width="2"
    filter="url(#shadow)"
  />
  <path
    d="M41.2 24.6C41.2 20.1 37.9 17.5 33 17.5H28C23.3 17.5 20 20.5 20 25.2C20 29.4 22.4 32.1 27.5 33.3L33.2 34.7C35.8 35.4 36.9 36.5 36.9 38.3C36.9 40.4 35.4 41.8 32.7 41.8H29.2C26.1 41.8 24.4 40.2 24.2 37.4H20.3C20.6 43 24.4 46.3 29.5 46.3H34.5C39.6 46.3 42.9 43.1 42.9 38.2C42.9 34.1 40.4 31.3 35.7 30.1L30.4 28.8C27.8 28.1 26.6 27 26.6 25.1C26.6 22.9 28.1 21.6 30.6 21.6H33.8C36.4 21.6 38 22.9 38.1 25.3L41.2 24.6Z"
    fill="url(#sGradient)"
  />
  <path
    d="M32 68C44.9 56.8 52.8 40.6 53.5 19.9"
    stroke="#00D4FF"
    stroke-width="1.2"
    stroke-linecap="round"
    opacity="0.4"
  />
</svg>
